# ProBuilder 5.2.2
# https://unity3d.com/unity/features/worldbuilding/probuilder
# 8/24/2024 7:14:46 AM

mtllib ./Bumper_Mesh.mtl
o Bumper_Mesh

g Bumper_Mesh
v -1.00585 -0.2 1.247766
v -1.25585 -0.2 1.247766
v -1.00585 0.2 1.247766
v -1.25585 0.2 1.247766
v -1.25585 -0.2 -1.052233
v -1.25585 0.2 -1.052233
v -1.00585 -0.2 -1.052233
v -1.00585 0.2 -1.052233
v 1.25115 -0.2 0.9967665
v 0.9991864 -0.2 0.9967665
v 1.25115 0.2 0.9967665
v 0.9991864 0.2 0.9967665
v 0.9991864 -0.2 -1.247349
v 0.9991864 0.2 -1.247349
v 1.25115 -0.2 -1.247349
v 1.25115 0.2 -1.247349
v -1.008076 -0.2 1.246234
v -1.008076 -0.2 0.9962336
v -1.008076 0.2 1.246234
v -1.008076 0.2 0.9962336
v 1.25585 -0.2 0.9962339
v 1.25585 0.2 0.9962339
v 1.25585 -0.2 1.246234
v 1.25585 0.2 1.246234
v -1.250497 -0.2 -0.9977663
v -1.250497 -0.2 -1.247766
v -1.250497 0.2 -0.9977663
v -1.250497 0.2 -1.247766
v 1.002833 -0.2 -1.247766
v 1.002833 0.2 -1.247766
v 1.002833 -0.2 -0.9977661
v 1.002833 0.2 -0.9977661

vt 0.2505815 -0.07100396
vt 0.0005815029 -0.07100396
vt 0.2505815 0.3289961
vt 0.0005815029 0.3289961
vt -0.08488548 -0.07100396
vt -2.384885 -0.07100396
vt -0.08488548 0.3289961
vt -2.384885 0.3289961
vt -0.0005815029 -0.07100396
vt -0.2505815 -0.07100396
vt -0.0005815029 0.3289961
vt -0.2505815 0.3289961
vt 2.384885 -0.07100396
vt 0.08488548 -0.07100396
vt 2.384885 0.3289961
vt 0.08488548 0.3289961
vt -0.2505815 -0.08488548
vt -0.0005815029 -0.08488548
vt -0.2505815 -2.384885
vt -0.0005815029 -2.384885
vt 0.2505815 -2.384885
vt 0.0005815029 -2.384885
vt 0.2505815 -0.08488548
vt 0.0005815029 -0.08488548
vt -0.001382113 -0.07100396
vt -0.001382113 0.3289961
vt -2.329001 -0.07100396
vt -2.329001 0.3289961
vt 0.001382113 -0.07100396
vt 0.001382113 0.3289961
vt 2.329001 -0.07100396
vt 2.329001 0.3289961
vt 0.001382113 -0.0848856
vt -0.2505815 -2.329001
vt 0.001382113 -2.329001
vt 0.2505815 -2.329001
vt -0.001382113 -2.329001
vt -0.001382113 -0.0848856
vt -0.1274644 -0.07100396
vt -2.39139 -0.07100396
vt -0.1274644 0.3289961
vt -2.39139 0.3289961
vt 2.39139 -0.07100396
vt 0.1274644 -0.07100396
vt 2.39139 0.3289961
vt 0.1274644 0.3289961
vt -0.2505814 -0.1274644
vt -0.0005815029 -0.1274644
vt -0.2505815 -2.39139
vt -0.0005817413 -2.39139
vt 0.2505815 -2.39139
vt 0.0005816221 -2.39139
vt 0.2505815 -0.1274644
vt 0.0005815029 -0.1274644
vt -0.1249381 -0.07100396
vt -2.378269 -0.07100396
vt -0.1249381 0.3289961
vt -2.378269 0.3289961
vt 2.378269 -0.07100396
vt 0.1249382 -0.07100396
vt 2.378269 0.3289961
vt 0.1249382 0.3289961
vt -0.2505813 -0.1249382
vt -0.0005815029 -0.1249382
vt -0.2505815 -2.378269
vt -0.0005819798 -2.378269
vt 0.2505815 -2.378269
vt 0.0005819798 -2.378269
vt 0.2505813 -0.1249382
vt 0.0005815029 -0.1249382

vn 0 0 1
vn -1 0 0
vn 0 0 -1
vn 1 0 0
vn 0 1 0
vn 0 -1 0

usemtl M_White
f 3/3/1 4/4/1 2/2/1 1/1/1
f 4/7/2 6/8/2 5/6/2 2/5/2
f 6/11/3 8/12/3 7/10/3 5/9/3
f 8/15/4 3/16/4 1/14/4 7/13/4
f 8/19/5 6/20/5 4/18/5 3/17/5
f 1/23/6 2/24/6 5/22/6 7/21/6

usemtl M_White
f 11/3/1 12/26/1 10/25/1 9/1/1
f 12/7/2 14/28/2 13/27/2 10/5/2
f 14/30/3 16/12/3 15/10/3 13/29/3
f 16/32/4 11/16/4 9/14/4 15/31/4
f 16/34/5 14/35/5 12/33/5 11/17/5
f 9/23/6 10/38/6 13/37/6 15/36/6
f 19/3/2 20/4/2 18/2/2 17/1/2
f 20/41/3 22/42/3 21/40/3 18/39/3
f 22/11/4 24/12/4 23/10/4 21/9/4
f 24/45/1 19/46/1 17/44/1 23/43/1
f 24/49/5 22/50/5 20/48/5 19/47/5
f 17/53/6 18/54/6 21/52/6 23/51/6
f 27/3/2 28/4/2 26/2/2 25/1/2
f 28/57/3 30/58/3 29/56/3 26/55/3
f 30/11/4 32/12/4 31/10/4 29/9/4
f 32/61/1 27/62/1 25/60/1 31/59/1
f 32/65/5 30/66/5 28/64/5 27/63/5
f 25/69/6 26/70/6 29/68/6 31/67/6

