# ProBuilder 5.2.2
# https://unity3d.com/unity/features/worldbuilding/probuilder
# 8/24/2024 7:37:16 AM

mtllib ./Jaeger_BodyMesh.mtl
o Jaeger_BodyMesh

g Jaeger_BodyMesh
v -0.7990001 0.3879999 -0.8849
v -0.8990002 0.3879999 -0.8849
v -0.7990001 0.4204999 -0.8286083
v -0.8990002 0.4204999 -0.8286083
v -0.7990001 0.4854999 -0.8286083
v -0.8990002 0.4854999 -0.8286083
v -0.7990001 0.5179999 -0.8849
v -0.8990002 0.5179999 -0.8849
v -0.7990001 0.4854999 -0.9411916
v -0.8990002 0.4854999 -0.9411916
v -0.7990001 0.4204999 -0.9411916
v -0.8990002 0.4204999 -0.9411916
v -0.7990001 0.4529999 -0.8849
v -0.8990002 0.4529999 -0.8849
v 0.9063878 0.433302 -0.8878612
v -0.924947 0.4333018 -0.8878612
v 0.9063878 0.4483021 -0.8618804
v -0.924947 0.4483018 -0.8618804
v 0.9063878 0.4783021 -0.8618804
v -0.924947 0.4783019 -0.8618804
v 0.9063878 0.493302 -0.8878612
v -0.924947 0.4933019 -0.8878612
v 0.9063878 0.4783021 -0.913842
v -0.924947 0.4783018 -0.913842
v 0.9063878 0.4483021 -0.913842
v -0.924947 0.4483018 -0.913842
v 0.9063878 0.463302 -0.8878612
v -0.924947 0.4633018 -0.8878612
v 0.8800002 0.388 -0.8849
v 0.7800003 0.388 -0.8849
v 0.8800004 0.4204999 -0.8286083
v 0.7800003 0.4204999 -0.8286083
v 0.8800004 0.4854999 -0.8286083
v 0.7800003 0.4854999 -0.8286083
v 0.8800005 0.5179999 -0.8849
v 0.7800003 0.5179999 -0.8849
v 0.8800004 0.4854999 -0.9411916
v 0.7800003 0.4854999 -0.9411916
v 0.8800004 0.4204999 -0.9411916
v 0.7800003 0.4204999 -0.9411916
v 0.8800004 0.4529999 -0.8849
v 0.7800003 0.4529999 -0.8849
v 0.9940906 -0.05406779 1.032262
v -1.00591 -0.05406773 1.032262
v 0.9940906 0.2459323 1.032262
v -1.00591 0.2459325 1.032262
v -1.00591 -0.05406773 -0.967738
v -1.00591 0.2459325 -0.967738
v 0.9940906 -0.05406779 -0.967738
v 0.9940906 0.2459323 -0.967738
v 0.9757129 1.725983 0.07682949
v 0.9757129 1.724237 0.2615181
v 0.975713 0.2369739 0.6875473
v 0.975713 0.2314889 0.528756
v 0.975713 0.8402138 0.3855259
v 0.975713 0.8419064 0.07566261
v 0.8970003 0.8419064 0.07566261
v 0.8970003 1.725983 0.07682949
v 0.8970003 1.724237 0.2615181
v 0.8970003 0.8402138 0.3855259
v 0.8970003 0.2369739 0.6875473
v 0.8970003 0.2314889 0.528756
v 0.977 0.2261245 0.08259863
v 0.8970001 0.2261245 0.08259863
v 0.977 1.726125 0.08259869
v 0.8970001 1.726125 0.08259869
v 0.8970001 0.2261245 -0.06740135
v 0.8970001 1.726125 -0.06740129
v 0.977 0.2261245 -0.06740135
v 0.977 1.726125 -0.06740129
v -0.9182876 1.725983 0.07682949
v -0.9182876 1.724237 0.2615181
v -0.9182875 0.2369739 0.6875473
v -0.9182875 0.2314889 0.528756
v -0.9182875 0.8402138 0.3855259
v -0.9182875 0.8419064 0.07566261
v -0.9970001 0.8419064 0.07566261
v -0.9970002 1.725983 0.07682949
v -0.9970002 1.724236 0.2615181
v -0.9970001 0.8402138 0.3855259
v -0.9970002 0.236974 0.6875473
v -0.9970002 0.2314889 0.528756
v -0.9170004 0.2261245 0.08259863
v -0.9970005 0.2261245 0.08259863
v -0.9170004 1.726125 0.08259869
v -0.9970005 1.726125 0.08259869
v -0.9970005 0.2261245 -0.06740135
v -0.9970005 1.726125 -0.06740129
v -0.9170004 0.2261245 -0.06740135
v -0.9170004 1.726125 -0.06740129
v 0.8978025 1.727686 0.08687317
v 0.8978027 1.577686 0.08687317
v 0.1978021 1.727686 0.08687317
v 0.1978022 1.577686 0.08687317
v 0.8978027 1.577686 -0.0631268
v 0.1978022 1.577686 -0.0631268
v 0.8978025 1.727686 -0.0631268
v 0.1978021 1.727686 -0.0631268
v -0.2166984 1.727686 0.08687317
v -0.2166983 1.577686 0.08687317
v -0.9166986 1.727686 0.08687317
v -0.9166985 1.577686 0.08687317
v -0.2166983 1.577686 -0.0631268
v -0.9166985 1.577686 -0.0631268
v -0.2166984 1.727686 -0.0631268
v -0.9166986 1.727686 -0.0631268
v -0.9257683 0.2261245 -0.8125651
v -1.005768 0.2261245 -0.8125651
v -0.9257684 1.726125 -0.8125651
v -1.005768 1.726125 -0.8125651
v -1.005768 0.2261245 -0.9625651
v -1.005768 1.726125 -0.9625651
v -0.9257683 0.2261245 -0.9625651
v -0.9257684 1.726125 -0.9625651
v 0.9863911 0.2397911 -0.8104013
v 0.9063911 0.2397911 -0.8104013
v 0.9863911 1.739791 -0.8104013
v 0.906391 1.739791 -0.8104013
v 0.9063911 0.2397911 -0.9604013
v 0.906391 1.739791 -0.9604013
v 0.9863911 0.2397911 -0.9604013
v 0.9863911 1.739791 -0.9604013
v 0.9035431 1.384692 -0.8912372
v -0.9264576 1.384692 -0.8912372
v 0.9035431 1.404692 -0.8565962
v -0.9264576 1.404692 -0.8565962
v 0.9035431 1.444692 -0.8565962
v -0.9264576 1.444692 -0.8565962
v 0.9035431 1.464692 -0.8912372
v -0.9264576 1.464692 -0.8912372
v 0.9035431 1.444692 -0.9258782
v -0.9264576 1.444692 -0.9258782
v 0.9035431 1.404692 -0.9258782
v -0.9264576 1.404692 -0.9258782
v 0.9035431 1.424692 -0.8912372
v -0.9264576 1.424692 -0.8912372
v 0.9115504 1.583692 -0.8912372
v -0.9184505 1.583692 -0.8912372
v 0.9115503 1.603692 -0.8565962
v -0.9184506 1.603692 -0.8565962
v 0.9115503 1.643692 -0.8565962
v -0.9184506 1.643692 -0.8565962
v 0.9115503 1.663692 -0.8912372
v -0.9184506 1.663692 -0.8912372
v 0.9115503 1.643692 -0.9258782
v -0.9184506 1.643692 -0.9258782
v 0.9115503 1.603692 -0.9258782
v -0.9184506 1.603692 -0.9258782
v 0.9115503 1.623692 -0.8912372
v -0.9184506 1.623692 -0.8912372

vt -1.021716 0.7930906
vt -1.021716 0.8930906
vt -0.9567164 0.7930906
vt -0.9567164 0.8930906
vt -0.4223617 0.7930906
vt -0.4223617 0.8930906
vt -0.3573617 0.7930906
vt -0.3573617 0.8930906
vt 0.5668547 0.7930906
vt 0.5668547 0.8930906
vt 0.6318547 0.7930906
vt 0.6318547 0.8930906
vt 0.9567164 0.7930906
vt 0.9567164 0.8930906
vt 1.021716 0.7930906
vt 1.021716 0.8930906
vt 0.3573617 0.7930906
vt 0.3573617 0.8930906
vt 0.4223617 0.7930906
vt 0.4223617 0.8930906
vt -0.6318546 0.7930906
vt -0.6318546 0.8930906
vt -0.5668546 0.7930906
vt -0.5668546 0.8930906
vt -0.4548617 -0.9171619
vt -0.3898617 -0.9171619
vt -0.4223617 -0.8608703
vt 0.4548617 -0.9171619
vt 0.3898617 -0.9171619
vt 0.4223617 -0.8608703
vt -0.3573617 -0.8608703
vt 0.3573617 -0.8608703
vt -0.3248617 -0.9171619
vt 0.3248617 -0.9171619
vt -0.3573617 -0.9734536
vt 0.3573617 -0.9734536
vt -0.4223617 -0.9734536
vt 0.4223617 -0.9734536
vt -0.9915787 0.8431019
vt -0.9915785 2.674436
vt -0.9615784 0.8431019
vt -0.961578 2.674436
vt -0.4300343 0.8431019
vt -0.4300344 2.674436
vt -0.4000345 0.8431019
vt -0.4000344 2.674436
vt 0.5465381 0.8431019
vt 0.5465384 2.674436
vt 0.5765383 0.8431019
vt 0.5765387 2.674436
vt 0.9615664 0.8431019
vt 0.9615664 2.674436
vt 0.9915664 0.8431019
vt 0.9915664 2.674436
vt 0.400039 0.8431019
vt 0.4000393 2.674436
vt 0.4300393 0.8431019
vt 0.4300396 2.674436
vt -0.576539 0.8431019
vt -0.5765387 2.674436
vt -0.5465387 0.8431019
vt -0.5465383 2.674436
vt -0.4450355 -0.888023
vt -0.4150355 -0.888023
vt -0.4300354 -0.8620422
vt 0.4450359 -0.8880228
vt 0.4150359 -0.8880228
vt 0.4300359 -0.8620421
vt -0.4000355 -0.8620422
vt 0.4000344 -0.8620421
vt -0.3850351 -0.8880229
vt 0.3850343 -0.8880229
vt -0.4000351 -0.9140036
vt 0.4000344 -0.9140038
vt -0.4300354 -0.9140036
vt 0.4300358 -0.9140036
vt 0.6101385 -0.05383895
vt -1.389861 -0.05383869
vt 0.6101387 0.2461609
vt -1.389861 0.2461612
vt 1.389862 -1.814092
vt -0.6101383 -1.814091
vt 1.389862 -1.514091
vt -0.6101383 -1.514091
vt 1.389862 -0.05383898
vt -0.6101382 -0.05383889
vt 1.389862 0.2461611
vt -0.6101383 0.2461612
vt 0.610138 -1.814091
vt -1.389862 -1.814091
vt 0.610138 -1.514091
vt -1.389862 -1.514091
vt -0.082838 1.84309
vt 1.917162 1.84309
vt -0.08283806 -0.1569095
vt 1.917162 -0.1569096
vt 0.08283806 -0.1569096
vt -1.917162 -0.1569096
vt 0.08283806 1.84309
vt -1.917162 1.84309
vt -0.3898617 -1.664091
vt -0.2051732 -1.662344
vt 0.220856 -0.175082
vt 0.06206468 -0.1695969
vt -0.08116537 -0.7783217
vt -0.3910286 -0.7800143
vt 0.3910286 -0.7800145
vt 0.3898618 -1.664091
vt 0.2051732 -1.662345
vt 0.08116537 -0.778322
vt -0.2208559 -0.1750822
vt -0.06206468 -0.1695971
vt 1.275149 0.0961619
vt 0.3910719 0.09616178
vt 1.275149 0.0174492
vt 0.3910719 0.0174492
vt 0.9134343 0.8501539
vt 0.7287374 0.8501539
vt 0.9134343 0.7714413
vt 0.7287374 0.7714413
vt -0.601489 0.8471696
vt -0.9113571 0.8471696
vt -0.601489 0.7684571
vt -0.9113571 0.7684571
vt -0.1747613 0.1250407
vt -1.721839 0.1250411
vt -0.1747613 0.04632807
vt -1.721839 0.04632843
vt -0.3711241 0.8173045
vt -0.5300101 0.8173045
vt -0.3711241 0.7385919
vt -0.5300101 0.7385919
vt 1.727706 0.1160158
vt 1.102358 0.1160157
vt 1.727706 0.03730321
vt 1.102358 0.03730309
vt -0.2774712 -0.2278152
vt -0.357471 -0.2278152
vt -0.2774709 1.272185
vt -0.3574707 1.272185
vt 0.3914606 -1.988068
vt 0.2414604 -1.988068
vt 0.3914607 -0.4880678
vt 0.2414605 -0.4880678
vt 0.3574709 -0.2278132
vt 0.2774709 -0.2278132
vt 0.3574707 1.272187
vt 0.2774708 1.272187
vt -0.2414604 -1.988068
vt -0.3914606 -1.988068
vt -0.2414604 -0.488068
vt -0.3914606 -0.488068
vt 0.8047714 0.8446905
vt 0.8847714 0.8446905
vt 0.8047714 0.6946905
vt 0.8847714 0.6946905
vt -0.8047714 0.6946905
vt -0.8847714 0.6946905
vt -0.8047714 0.8446905
vt -0.8847714 0.8446905
vt -0.3841763 0.1548578
vt -0.5341762 0.1548576
vt -0.3841761 0.8548578
vt -0.5341763 0.8548578
vt -0.7762897 0.9017879
vt -0.9262898 0.9017879
vt -0.7762897 1.601788
vt -0.9262898 1.601788
vt 0.534177 0.1548573
vt 0.3841767 0.1548575
vt 0.5341772 0.8548574
vt 0.3841767 0.8548574
vt 0.9262893 0.9017879
vt 0.7762892 0.9017879
vt 0.9262893 1.601788
vt 0.7762892 1.601788
vt 0.3841757 -1.523218
vt 0.5341756 -1.523218
vt 0.3841757 -1.673218
vt 0.5341756 -1.673218
vt -0.3841755 -1.673219
vt -0.5341755 -1.673219
vt -0.3841755 -1.523219
vt -0.5341755 -1.523219
vt -0.3106299 -0.2278153
vt -0.3906299 -0.2278153
vt -0.3106299 1.272185
vt -0.3906297 1.272185
vt 0.4382967 -1.988067
vt 0.2882966 -1.988067
vt 0.4382968 -0.4880671
vt 0.2882967 -0.4880671
vt 0.3906299 -0.2278128
vt 0.3106297 -0.2278128
vt 0.3906299 1.272187
vt 0.3106299 1.272187
vt -0.2882966 -1.988067
vt -0.4382966 -1.988067
vt -0.2882966 -0.4880667
vt -0.4382966 -0.4880667
vt 0.8379301 0.8915261
vt 0.9179301 0.8915261
vt 0.8379301 0.7415261
vt 0.9179301 0.7415261
vt -0.8379301 0.7415254
vt -0.9179301 0.7415254
vt -0.8379301 0.8915253
vt -0.9179301 0.8915253
vt -0.2774711 -0.2141488
vt -0.3574709 -0.2141488
vt -0.2774709 1.285851
vt -0.3574708 1.285851
vt 0.3914604 -1.9744
vt 0.2414604 -1.9744
vt 0.3914604 -0.4744004
vt 0.2414605 -0.4744004
vt 0.357471 -0.2141482
vt 0.277471 -0.2141482
vt 0.3574709 1.285852
vt 0.2774709 1.285852
vt -0.2414604 -1.9744
vt -0.3914604 -1.9744
vt -0.2414604 -0.4744001
vt -0.3914604 -0.4744001
vt -0.9957686 0.3960825
vt -0.9957686 2.226082
vt -0.9557685 0.3960825
vt -0.9557685 2.226082
vt -0.4431713 0.02261603
vt -0.4431713 1.852616
vt -0.4031711 0.02261603
vt -0.4031711 1.852616
vt 0.532599 1.143013
vt 0.532599 2.973012
vt 0.5725992 1.143013
vt 0.5725992 2.973012
vt 0.9557686 0.3960824
vt 0.9557686 2.226083
vt 0.9957687 0.3960824
vt 0.9957687 2.226083
vt 0.4031697 0.02262264
vt 0.4031697 1.852623
vt 0.4431697 0.02262264
vt 0.4431697 1.852623
vt -0.5725966 1.143013
vt -0.5725966 2.973013
vt -0.5325966 1.143013
vt -0.5325966 2.973013
vt -0.4631694 -1.629329
vt -0.4231694 -1.629329
vt -0.4431694 -1.594688
vt 0.4631694 -1.629329
vt 0.4231694 -1.629329
vt 0.4431694 -1.594688
vt -0.4031693 -1.594688
vt 0.4031693 -1.594688
vt -0.3831699 -1.629329
vt 0.3831687 -1.62933
vt -0.4031699 -1.66397
vt 0.4031687 -1.66397
vt -0.4431693 -1.66397
vt 0.4431693 -1.66397

vn 0 -1 0
vn 0 -0.5 0.8660254
vn 0 0.5000001 0.8660253
vn 0 1 0
vn 0 0.5000001 -0.8660253
vn 0 -0.5 -0.8660254
vn 1 0 0
vn -1 0 0
vn 8.13678E-08 -0.5000002 0.8660253
vn -6.509413E-08 0.4999995 -0.8660257
vn 0 0.4999998 0.8660255
vn 0 -0.5000005 -0.8660251
vn 0 0 1
vn 0 0 -1
vn 0 0.001319885 -0.9999992
vn 0 0.9999553 0.009455579
vn 0 -0.9999851 -0.005462112
vn 0 0.2753766 0.9613364
vn 0 -0.999404 0.03452197
vn 0 -0.2290404 -0.9734169

usemtl M_Black
f 1/25/7 13/26/7 3/27/7
f 3/27/7 13/26/7 5/31/7
f 5/31/7 13/26/7 7/33/7
f 7/33/7 13/26/7 9/35/7
f 9/35/7 13/26/7 11/37/7
f 11/37/7 13/26/7 1/25/7
f 4/30/8 14/29/8 2/28/8
f 6/32/8 14/29/8 4/30/8
f 8/34/8 14/29/8 6/32/8
f 10/36/8 14/29/8 8/34/8
f 12/38/8 14/29/8 10/36/8
f 2/28/8 14/29/8 12/38/8
f 29/25/7 41/26/7 31/27/7
f 31/27/7 41/26/7 33/31/7
f 33/31/7 41/26/7 35/33/7
f 35/33/7 41/26/7 37/35/7
f 37/35/7 41/26/7 39/37/7
f 39/37/7 41/26/7 29/25/7
f 32/30/8 42/29/8 30/28/8
f 34/32/8 42/29/8 32/30/8
f 36/34/8 42/29/8 34/32/8
f 38/36/8 42/29/8 36/34/8
f 40/38/8 42/29/8 38/36/8
f 30/28/8 42/29/8 40/38/8
f 4/4/2 2/2/1 1/1/1
f 1/1/1 3/3/2 4/4/2
f 6/8/3 4/6/2 3/5/2
f 3/5/2 5/7/3 6/8/3
f 8/12/4 6/10/3 5/9/3
f 5/9/3 7/11/4 8/12/4
f 10/16/5 8/14/4 7/13/4
f 7/13/4 9/15/5 10/16/5
f 12/20/6 10/18/5 9/17/5
f 9/17/5 11/19/6 12/20/6
f 2/24/1 12/22/6 11/21/6
f 11/21/6 1/23/1 2/24/1
f 32/4/9 30/2/1 29/1/1
f 29/1/1 31/3/9 32/4/9
f 34/8/11 32/6/9 31/5/9
f 31/5/9 33/7/11 34/8/11
f 36/12/4 34/10/11 33/9/11
f 33/9/11 35/11/4 36/12/4
f 38/16/10 36/14/4 35/13/4
f 35/13/4 37/15/10 38/16/10
f 40/20/12 38/18/10 37/17/10
f 37/17/10 39/19/12 40/20/12
f 30/24/1 40/22/12 39/21/12
f 39/21/12 29/23/1 30/24/1

usemtl M_Metal
f 15/63/7 27/64/7 17/65/7
f 17/65/7 27/64/7 19/69/7
f 19/69/7 27/64/7 21/71/7
f 21/71/7 27/64/7 23/73/7
f 23/73/7 27/64/7 25/75/7
f 25/75/7 27/64/7 15/63/7
f 18/68/8 28/67/8 16/66/8
f 20/70/8 28/67/8 18/68/8
f 22/72/8 28/67/8 20/70/8
f 24/74/8 28/67/8 22/72/8
f 26/76/8 28/67/8 24/74/8
f 16/66/8 28/67/8 26/76/8
f 55/105/7 53/103/7 54/104/7
f 52/102/7 53/103/7 55/105/7
f 56/106/7 52/102/7 55/105/7
f 56/106/7 51/101/7 52/102/7
f 59/109/8 58/108/8 57/107/8
f 60/110/8 59/109/8 57/107/8
f 60/110/8 61/111/8 59/109/8
f 62/112/8 61/111/8 60/110/8
f 75/105/7 73/103/7 74/104/7
f 72/102/7 73/103/7 75/105/7
f 76/106/7 72/102/7 75/105/7
f 76/106/7 71/101/7 72/102/7
f 79/109/8 78/108/8 77/107/8
f 80/110/8 79/109/8 77/107/8
f 80/110/8 81/111/8 79/109/8
f 82/112/8 81/111/8 80/110/8
f 123/249/7 135/250/7 125/251/7
f 125/251/7 135/250/7 127/255/7
f 127/255/7 135/250/7 129/257/7
f 129/257/7 135/250/7 131/259/7
f 131/259/7 135/250/7 133/261/7
f 133/261/7 135/250/7 123/249/7
f 126/254/8 136/253/8 124/252/8
f 128/256/8 136/253/8 126/254/8
f 130/258/8 136/253/8 128/256/8
f 132/260/8 136/253/8 130/258/8
f 134/262/8 136/253/8 132/260/8
f 124/252/8 136/253/8 134/262/8
f 137/249/7 149/250/7 139/251/7
f 139/251/7 149/250/7 141/255/7
f 141/255/7 149/250/7 143/257/7
f 143/257/7 149/250/7 145/259/7
f 145/259/7 149/250/7 147/261/7
f 147/261/7 149/250/7 137/249/7
f 140/254/8 150/253/8 138/252/8
f 142/256/8 150/253/8 140/254/8
f 144/258/8 150/253/8 142/256/8
f 146/260/8 150/253/8 144/258/8
f 148/262/8 150/253/8 146/260/8
f 138/252/8 150/253/8 148/262/8
f 18/42/9 16/40/1 15/39/1
f 15/39/1 17/41/2 18/42/9
f 20/46/3 18/44/9 17/43/2
f 17/43/2 19/45/3 20/46/3
f 22/50/4 20/48/3 19/47/3
f 19/47/3 21/49/4 22/50/4
f 24/54/10 22/52/4 21/51/4
f 21/51/4 23/53/10 24/54/10
f 26/58/6 24/56/10 23/55/10
f 23/55/10 25/57/6 26/58/6
f 16/62/1 26/60/6 25/59/6
f 25/59/6 15/61/1 16/62/1
f 46/80/13 44/78/13 43/77/13
f 43/77/13 45/79/13 46/80/13
f 48/84/8 47/82/8 44/81/8
f 44/81/8 46/83/8 48/84/8
f 50/88/14 49/86/14 47/85/14
f 47/85/14 48/87/14 50/88/14
f 45/92/7 43/90/7 49/89/7
f 49/89/7 50/91/7 45/92/7
f 48/96/4 46/94/4 45/93/4
f 45/93/4 50/95/4 48/96/4
f 44/100/1 47/98/1 49/97/1
f 49/97/1 43/99/1 44/100/1
f 58/114/15 51/116/15 56/115/15
f 56/115/15 57/113/15 58/114/15
f 59/118/16 52/120/16 51/119/16
f 51/119/16 58/117/16 59/118/16
f 57/122/17 56/124/17 55/123/17
f 55/123/17 60/121/17 57/122/17
f 61/126/18 53/128/18 52/127/18
f 52/127/18 59/125/18 61/126/18
f 62/130/19 54/132/19 53/131/19
f 53/131/19 61/129/19 62/130/19
f 60/134/20 55/136/20 54/135/20
f 54/135/20 62/133/20 60/134/20
f 66/140/13 64/138/13 63/137/13
f 63/137/13 65/139/13 66/140/13
f 68/144/8 67/142/8 64/141/8
f 64/141/8 66/143/8 68/144/8
f 70/148/14 69/146/14 67/145/14
f 67/145/14 68/147/14 70/148/14
f 65/152/7 63/150/7 69/149/7
f 69/149/7 70/151/7 65/152/7
f 68/156/4 66/154/4 65/153/4
f 65/153/4 70/155/4 68/156/4
f 64/160/1 67/158/1 69/157/1
f 69/157/1 63/159/1 64/160/1
f 78/114/15 71/116/15 76/115/15
f 76/115/15 77/113/15 78/114/15
f 79/118/16 72/120/16 71/119/16
f 71/119/16 78/117/16 79/118/16
f 77/122/17 76/124/17 75/123/17
f 75/123/17 80/121/17 77/122/17
f 81/126/18 73/128/18 72/127/18
f 72/127/18 79/125/18 81/126/18
f 82/130/19 74/132/19 73/131/19
f 73/131/19 81/129/19 82/130/19
f 80/134/20 75/136/20 74/135/20
f 74/135/20 82/133/20 80/134/20
f 86/140/13 84/138/13 83/137/13
f 83/137/13 85/139/13 86/140/13
f 88/144/8 87/142/8 84/141/8
f 84/141/8 86/143/8 88/144/8
f 90/148/14 89/146/14 87/145/14
f 87/145/14 88/147/14 90/148/14
f 85/152/7 83/150/7 89/149/7
f 89/149/7 90/151/7 85/152/7
f 88/156/4 86/154/4 85/153/4
f 85/153/4 90/155/4 88/156/4
f 84/160/1 87/158/1 89/157/1
f 89/157/1 83/159/1 84/160/1
f 94/164/13 92/162/13 91/161/13
f 91/161/13 93/163/13 94/164/13
f 96/168/1 95/166/1 92/165/1
f 92/165/1 94/167/1 96/168/1
f 98/172/14 97/170/14 95/169/14
f 95/169/14 96/171/14 98/172/14
f 93/176/4 91/174/4 97/173/4
f 97/173/4 98/175/4 93/176/4
f 96/180/8 94/178/8 93/177/8
f 93/177/8 98/179/8 96/180/8
f 92/184/7 95/182/7 97/181/7
f 97/181/7 91/183/7 92/184/7
f 102/164/13 100/162/13 99/161/13
f 99/161/13 101/163/13 102/164/13
f 104/168/1 103/166/1 100/165/1
f 100/165/1 102/167/1 104/168/1
f 106/172/14 105/170/14 103/169/14
f 103/169/14 104/171/14 106/172/14
f 101/176/4 99/174/4 105/173/4
f 105/173/4 106/175/4 101/176/4
f 104/180/8 102/178/8 101/177/8
f 101/177/8 106/179/8 104/180/8
f 100/184/7 103/182/7 105/181/7
f 105/181/7 99/183/7 100/184/7
f 110/188/13 108/186/13 107/185/13
f 107/185/13 109/187/13 110/188/13
f 112/192/8 111/190/8 108/189/8
f 108/189/8 110/191/8 112/192/8
f 114/196/14 113/194/14 111/193/14
f 111/193/14 112/195/14 114/196/14
f 109/200/7 107/198/7 113/197/7
f 113/197/7 114/199/7 109/200/7
f 112/204/4 110/202/4 109/201/4
f 109/201/4 114/203/4 112/204/4
f 108/208/1 111/206/1 113/205/1
f 113/205/1 107/207/1 108/208/1
f 118/212/13 116/210/13 115/209/13
f 115/209/13 117/211/13 118/212/13
f 120/216/8 119/214/8 116/213/8
f 116/213/8 118/215/8 120/216/8
f 122/220/14 121/218/14 119/217/14
f 119/217/14 120/219/14 122/220/14
f 117/224/7 115/222/7 121/221/7
f 121/221/7 122/223/7 117/224/7
f 120/156/4 118/154/4 117/153/4
f 117/153/4 122/155/4 120/156/4
f 116/160/1 119/158/1 121/157/1
f 121/157/1 115/159/1 116/160/1
f 126/228/9 124/226/1 123/225/1
f 123/225/1 125/227/9 126/228/9
f 128/232/3 126/230/9 125/229/9
f 125/229/9 127/231/3 128/232/3
f 130/236/4 128/234/3 127/233/3
f 127/233/3 129/235/4 130/236/4
f 132/240/5 130/238/4 129/237/4
f 129/237/4 131/239/5 132/240/5
f 134/244/12 132/242/5 131/241/5
f 131/241/5 133/243/12 134/244/12
f 124/248/1 134/246/12 133/245/12
f 133/245/12 123/247/1 124/248/1
f 140/228/2 138/226/1 137/225/1
f 137/225/1 139/227/2 140/228/2
f 142/232/3 140/230/2 139/229/2
f 139/229/2 141/231/3 142/232/3
f 144/236/4 142/234/3 141/233/3
f 141/233/3 143/235/4 144/236/4
f 146/240/5 144/238/4 143/237/4
f 143/237/4 145/239/5 146/240/5
f 148/244/6 146/242/5 145/241/5
f 145/241/5 147/243/6 148/244/6
f 138/248/1 148/246/6 147/245/6
f 147/245/6 137/247/1 138/248/1

