# ProBuilder 5.2.2
# https://unity3d.com/unity/features/worldbuilding/probuilder
# 8/28/2024 6:22:00 AM

mtllib ./Wheel_Mesh.mtl
o Wheel_Mesh

g PolyShape (2)
v -0.3253572 0.01636182 0.2495603
v -0.01226115 0.01636182 -0.004628599
v -0.4122379 0.01636182 -0.01951945
v -0.4122379 -0.06573641 -0.01951945
v -0.01226115 -0.06573641 -0.004628599
v -0.3253572 -0.06573641 0.2495603
v 0.1216428 0.01636182 0.3765603
v -0.008774996 0.01636182 -0.005057812
v -0.1608856 0.01636182 0.3651658
v -0.1608856 -0.06573641 0.3651658
v -0.008774996 -0.06573641 -0.005057812
v 0.1216428 -0.06573641 0.3765603
v -0.3353572 0.01636182 -0.2434398
v -0.009000301 0.01636182 -0.006517172
v -0.09779906 0.01636182 -0.3967965
v -0.09779906 -0.06573641 -0.3967965
v -0.009000301 -0.06573641 -0.006517172
v -0.3353572 -0.06573641 -0.2434398
v 0.1146429 0.01636182 -0.3884398
v -0.009535313 0.01636182 -0.004745841
v 0.3340421 0.01636182 -0.2100691
v 0.3340421 -0.06573641 -0.2100691
v -0.009535313 -0.06573641 -0.004745841
v 0.1146429 -0.06573641 -0.3884398
v 0.3966429 0.01636182 -0.01223969
v -0.00655055 0.01636182 -0.003510535
v 0.3002257 0.01636182 0.253572
v 0.3002257 -0.06573641 0.253572
v -0.00655055 -0.06573641 -0.003510535
v 0.3966429 -0.06573641 -0.01223969
v -0.4619398 -0.1 0.1913418
v -0.5 -0.1 0
v -0.4619398 0.1 0.1913418
v -0.5 0.1 0
v -0.3499999 -0.1 0
v -0.3233578 -0.1 0.1339392
v -0.3499999 0.1 0
v -0.3233578 0.1 0.1339392
v -0.3535533 -0.1 0.3535534
v -0.3535533 0.1 0.3535534
v -0.2474873 -0.1 0.2474874
v -0.2474873 0.1 0.2474874
v -0.1913416 -0.1 0.4619398
v -0.1913416 0.1 0.4619398
v -0.1339393 -0.1 0.3233579
v -0.1339393 0.1 0.3233579
v 0 -0.1 0.5000001
v 0 0.1 0.5000001
v 0 -0.1 0.35
v 0 0.1 0.35
v 0.1913416 -0.1 0.4619398
v 0.1913416 0.1 0.4619398
v 0.1339393 -0.1 0.3233579
v 0.1339393 0.1 0.3233579
v 0.3535533 -0.1 0.3535534
v 0.3535533 0.1 0.3535534
v 0.2474873 -0.1 0.2474874
v 0.2474873 0.1 0.2474874
v 0.4619398 -0.1 0.1913418
v 0.4619398 0.1 0.1913418
v 0.3233578 -0.1 0.1339392
v 0.3233578 0.1 0.1339392
v 0.5 -0.1 -5.960464E-08
v 0.5 0.1 -5.960464E-08
v 0.3499999 -0.1 0
v 0.3499999 0.1 0
v 0.4619398 -0.1 -0.1913418
v 0.4619398 0.1 -0.1913418
v 0.3233578 -0.1 -0.1339392
v 0.3233578 0.1 -0.1339392
v 0.3535533 -0.1 -0.3535535
v 0.3535533 0.1 -0.3535535
v 0.2474873 -0.1 -0.2474874
v 0.2474873 0.1 -0.2474874
v 0.1913419 -0.1 -0.4619399
v 0.1913419 0.1 -0.4619399
v 0.1339393 -0.1 -0.3233578
v 0.1339393 0.1 -0.3233578
v 0 -0.1 -0.5
v 0 0.1 -0.5
v 0 -0.1 -0.35
v 0 0.1 -0.35
v -0.1913419 -0.1 -0.4619398
v -0.1913419 0.1 -0.4619398
v -0.1339393 -0.1 -0.3233578
v -0.1339393 0.1 -0.3233578
v -0.3535533 -0.1 -0.3535534
v -0.3535533 0.1 -0.3535534
v -0.2474873 -0.1 -0.2474874
v -0.2474873 0.1 -0.2474874
v -0.4619398 -0.1 -0.1913418
v -0.4619398 0.1 -0.1913418
v -0.3233578 -0.1 -0.1339392
v -0.3233578 0.1 -0.1339392

vt -0.1218395 0.3915262
vt 0.008578323 0.00990814
vt 0.1606889 0.3801317
vt -0.1606889 0.3801317
vt -0.008578323 0.00990814
vt 0.1218395 0.3915262
vt 0.4126786 -0.06573641
vt 0.01242482 -0.06573641
vt 0.4126786 0.01636182
vt 0.01242482 0.01636182
vt -0.006601633 -0.06573641
vt -0.4098896 -0.06573641
vt -0.006601633 0.01636182
vt -0.4098896 0.01636182
vt 0.1375182 -0.06573641
vt -0.1452399 -0.06573641
vt 0.1375182 0.01636182
vt -0.1452399 0.01636182
vt -0.1683528 0.3464206
vt -0.03793493 -0.03519747
vt 0.1141756 0.3350261
vt -0.1141756 0.335026
vt 0.03793496 -0.03519754
vt 0.1683528 0.3464205
vt 0.4513146 -0.06573641
vt 0.05106083 -0.06573641
vt 0.4513146 0.01636182
vt 0.05106083 0.01636182
vt 0.2723534 -0.06573641
vt -0.1309346 -0.06573641
vt 0.2723534 0.01636182
vt -0.1309346 0.01636182
vt -0.3150362 -0.06573641
vt -0.5977943 -0.06573641
vt -0.3150362 0.01636182
vt -0.5977943 0.01636182
vt -0.07862083 0.3682714
vt 0.05179703 -0.01334656
vt 0.2039076 0.356877
vt -0.2039076 0.356877
vt -0.05179702 -0.01334656
vt 0.07862082 0.3682714
vt -0.07432738 -0.06573641
vt -0.4745812 -0.06573641
vt -0.07432738 0.01636182
vt -0.4745812 0.01636182
vt 0.2866068 -0.06573641
vt -0.1166812 -0.06573641
vt 0.2866068 0.01636182
vt -0.1166812 0.01636182
vt 0.4086991 -0.06573641
vt 0.125941 -0.06573641
vt 0.4086991 0.01636182
vt 0.125941 0.01636182
vt -0.08507366 0.3310138
vt 0.04534404 -0.05060452
vt 0.1974547 0.319619
vt -0.1974546 0.3196191
vt -0.04534416 -0.05060449
vt 0.08507363 0.3310137
vt -0.3104753 -0.06573641
vt -0.7107291 -0.06573641
vt -0.3104753 0.01636182
vt -0.7107291 0.01636182
vt 0.7409052 -0.06573641
vt 0.3376172 -0.06573641
vt 0.7409052 0.01636182
vt 0.3376172 0.01636182
vt 0.09502416 -0.06573641
vt -0.1877339 -0.06573641
vt 0.09502416 0.01636182
vt -0.1877339 0.01636182
vt -0.1311469 0.3252373
vt -0.0007292181 -0.0563809
vt 0.1513814 0.3138427
vt -0.1513814 0.3138427
vt 0.0007292032 -0.05638096
vt 0.131147 0.3252372
vt 0.007751882 -0.06573641
vt -0.3925019 -0.06573641
vt 0.007751882 0.01636182
vt -0.3925019 0.01636182
vt 0.7339706 -0.06573641
vt 0.3306827 -0.06573641
vt 0.7339706 0.01636182
vt 0.3306827 0.01636182
vt -0.3455465 -0.06573641
vt -0.6283046 -0.06573641
vt -0.3455465 0.01636182
vt -0.6283046 0.01636182
vt -0.3082763 -0.02700001
vt -0.5033666 -0.02700001
vt -0.3082763 0.173
vt -0.5033666 0.173
vt 0.474103 -0.02700001
vt 0.3375398 -0.02700001
vt 0.474103 0.173
vt 0.3375398 0.173
vt -0.5660735 -0.02700001
vt -0.7611638 -0.02700001
vt -0.5660735 0.173
vt -0.7611638 0.173
vt 0.7319003 -0.02700001
vt 0.5953371 -0.02700001
vt 0.7319003 0.173
vt 0.5953371 0.173
vt -0.7228405 -0.02700001
vt -0.9179308 -0.02700001
vt -0.7228405 0.173
vt -0.9179308 0.173
vt 0.888667 -0.02700001
vt 0.7521039 -0.02700001
vt 0.888667 0.173
vt 0.7521039 0.173
vt -0.7547112 -0.02700001
vt -0.9498015 -0.02700001
vt -0.7547112 0.173
vt -0.9498015 0.173
vt 0.9205381 -0.02700001
vt 0.7839748 -0.02700001
vt 0.9205381 0.173
vt 0.7839748 0.173
vt -0.6568337 -0.02700001
vt -0.851924 -0.02700001
vt -0.6568337 0.173
vt -0.851924 0.173
vt 0.8226602 -0.02700001
vt 0.686097 -0.02700001
vt 0.8226602 0.173
vt 0.686097 0.173
vt -0.4441089 -0.02700001
vt -0.6391993 -0.02700001
vt -0.4441089 0.173
vt -0.6391993 0.173
vt 0.6099359 -0.02700001
vt 0.4733727 -0.02700001
vt 0.6099359 0.173
vt 0.4733727 0.173
vt -0.148922 -0.02700001
vt -0.3440123 -0.02700001
vt -0.148922 0.173
vt -0.3440123 0.173
vt 0.314749 -0.027
vt 0.1781858 -0.027
vt 0.314749 0.173
vt 0.1781858 0.173
vt 0.1837871 -0.02700001
vt -0.01130339 -0.02700001
vt 0.1837871 0.173
vt -0.01130339 0.173
vt -0.01796028 -0.02700001
vt -0.1545236 -0.02700001
vt -0.01796028 0.173
vt -0.1545236 0.173
vt 0.5033665 -0.027
vt 0.3082762 -0.027
vt 0.5033665 0.173
vt 0.3082762 0.173
vt -0.3375399 -0.02700001
vt -0.474103 -0.02700001
vt -0.3375399 0.173
vt -0.474103 0.173
vt 0.7611638 -0.02700001
vt 0.5660735 -0.02700001
vt 0.7611638 0.173
vt 0.5660735 0.173
vt -0.595337 -0.02700001
vt -0.7319002 -0.02700001
vt -0.595337 0.173
vt -0.7319002 0.173
vt 0.9179306 -0.02700001
vt 0.7228403 -0.02700001
vt 0.9179306 0.173
vt 0.7228403 0.173
vt -0.7521039 -0.02700001
vt -0.8886672 -0.02700001
vt -0.7521039 0.173
vt -0.8886672 0.173
vt 0.9498017 -0.02700001
vt 0.7547113 -0.02700001
vt 0.9498017 0.173
vt 0.7547113 0.173
vt -0.7839746 -0.02700001
vt -0.9205379 -0.02700001
vt -0.7839746 0.173
vt -0.9205379 0.173
vt 0.8519238 -0.02700001
vt 0.6568333 -0.02700001
vt 0.8519238 0.173
vt 0.6568333 0.173
vt -0.6860974 -0.02700001
vt -0.8226606 -0.02700001
vt -0.6860974 0.173
vt -0.8226606 0.173
vt 0.639199 -0.02700001
vt 0.4441089 -0.02700001
vt 0.639199 0.173
vt 0.4441089 0.173
vt -0.4733724 -0.02700001
vt -0.6099355 -0.02700001
vt -0.4733724 0.173
vt -0.6099355 0.173
vt 0.3440132 -0.027
vt 0.1489228 -0.027
vt 0.3440132 0.173
vt 0.1489228 0.173
vt -0.1781857 -0.02700001
vt -0.3147489 -0.02700001
vt -0.1781857 0.173
vt -0.3147489 0.173
vt 0.01130298 -0.027
vt -0.1837873 -0.027
vt 0.01130298 0.173
vt -0.1837873 0.173
vt 0.1545233 -0.02700001
vt 0.01796002 -0.02700001
vt 0.1545233 0.173
vt 0.01796002 0.173
vt -0.8686223 -0.08457783
vt -0.8305621 0.1067639
vt -0.7186224 -0.0845778
vt -0.6919802 0.04936138
vt 0.8305621 0.1067639
vt 0.8686224 -0.08457777
vt 0.6919802 0.04936141
vt 0.7186223 -0.08457777
vt -0.8436239 0.08008853
vt -0.7352375 0.2423003
vt -0.7050419 0.02268612
vt -0.6291714 0.1362344
vt 0.7352375 0.2423003
vt 0.8436239 0.08008853
vt 0.6291714 0.1362343
vt 0.7050419 0.02268612
vt -0.7335837 0.2387208
vt -0.571372 0.3471071
vt -0.6275177 0.1326548
vt -0.5139696 0.2085252
vt 0.571372 0.3471071
vt 0.7335837 0.2387208
vt 0.5139696 0.2085252
vt 0.6275177 0.1326548
vt -0.5684742 0.3444327
vt -0.3771325 0.382493
vt -0.5110718 0.2058508
vt -0.3771325 0.2324929
vt 0.3771325 0.382493
vt 0.5684742 0.3444327
vt 0.3771325 0.2324929
vt 0.5110718 0.2058508
vt -0.3475506 0.3878776
vt -0.1562089 0.3498175
vt -0.3475505 0.2378777
vt -0.2136112 0.2112356
vt 0.1562089 0.3498175
vt 0.3475506 0.3878778
vt 0.2136113 0.2112356
vt 0.3475506 0.2378778
vt -0.1828845 0.3628795
vt -0.02067274 0.2544931
vt -0.2402869 0.2242976
vt -0.1267388 0.1484271
vt 0.02067274 0.2544931
vt 0.1828845 0.3628795
vt 0.1267388 0.1484271
vt 0.2402869 0.2242976
vt -0.02425253 0.2528389
vt 0.08413386 0.09062725
vt -0.1303185 0.1467728
vt -0.0544481 0.03322473
vt -0.08413386 0.09062722
vt 0.0242525 0.2528389
vt 0.05444813 0.03322473
vt 0.1303185 0.1467728
vt 0.08145943 0.08772948
vt 0.1195197 -0.1036123
vt -0.05712251 0.0303269
vt -0.03048036 -0.1036123
vt -0.1195197 -0.1036123
vt -0.08145951 0.08772951
vt 0.03048037 -0.1036123
vt 0.05712248 0.03032693
vt 0.1249046 -0.1331945
vt 0.08684441 -0.3245362
vt -0.02509537 -0.1331945
vt -0.05173752 -0.2671337
vt -0.08684438 -0.3245362
vt -0.1249046 -0.1331946
vt 0.05173753 -0.2671337
vt 0.02509535 -0.1331945
vt 0.09990618 -0.2978605
vt -0.008480147 -0.4600722
vt -0.03867577 -0.2404581
vt -0.1145462 -0.3540062
vt 0.008480176 -0.4600724
vt -0.09990616 -0.2978607
vt 0.1145462 -0.3540064
vt 0.03867574 -0.2404583
vt -0.01013395 -0.4564921
vt -0.1723455 -0.5648785
vt -0.1162001 -0.350426
vt -0.2297481 -0.4262964
vt 0.1723455 -0.5648785
vt 0.010134 -0.4564922
vt 0.2297481 -0.4262964
vt 0.1162001 -0.350426
vt -0.1752435 -0.5622047
vt -0.3665851 -0.600265
vt -0.2326461 -0.4236228
vt -0.3665853 -0.4502651
vt 0.3665852 -0.600265
vt 0.1752435 -0.5622047
vt 0.3665853 -0.4502651
vt 0.2326461 -0.4236228
vt -0.3961672 -0.6056494
vt -0.587509 -0.567589
vt -0.3961672 -0.4556494
vt -0.5301064 -0.4290072
vt 0.587509 -0.567589
vt 0.3961671 -0.6056494
vt 0.5301063 -0.4290071
vt 0.3961671 -0.4556494
vt -0.5608335 -0.5806507
vt -0.7230449 -0.4722645
vt -0.5034308 -0.4420688
vt -0.6169789 -0.3661985
vt 0.7230449 -0.4722645
vt 0.5608335 -0.5806507
vt 0.6169789 -0.3661985
vt 0.5034308 -0.4420688
vt -0.7194652 -0.4706109
vt -0.8278517 -0.3083991
vt -0.6133991 -0.3645449
vt -0.6892697 -0.2509966
vt 0.8278518 -0.3083991
vt 0.7194653 -0.4706108
vt 0.6892697 -0.2509966
vt 0.6133993 -0.3645449
vt -0.8251773 -0.3055011
vt -0.8632375 -0.1141594
vt -0.6865953 -0.2480986
vt -0.7132374 -0.1141595
vt 0.8632375 -0.1141594
vt 0.8251773 -0.3055011
vt 0.7132374 -0.1141595
vt 0.6865953 -0.2480986

vn 0 1 0
vn 0 -1 0
vn 0.03720352 0 -0.9993077
vn 0.6302914 0 0.7763587
vn -0.9516251 0 0.3072615
vn -0.9249719 0 -0.3800353
vn 0.946267 0 -0.3233863
vn -0.04029781 0 0.9991878
vn 0.9750794 0 -0.2218561
vn -0.5874776 0 0.8092405
vn -0.54236 0 -0.8401462
vn 0.5129826 0 0.858399
vn -0.9514141 0 -0.3079143
vn 0.6308246 0 -0.7759255
vn -0.6422988 0 0.7664544
vn -0.02164498 0 -0.9997658
vn 0.9400676 0 0.3409883
vn -0.9238794 0 0.3826836
vn -1 0 0
vn 1 0 0
vn 0.9238796 0 -0.3826833
vn -0.7071065 0 0.7071071
vn 0.7071069 0 -0.7071067
vn -0.3826836 0 0.9238794
vn 0.3826837 0 -0.9238794
vn -2.278964E-07 0 1
vn 0 0 -1
vn 0.3826836 0 0.9238795
vn -0.3826837 0 -0.9238794
vn 0.7071066 0 0.7071069
vn -0.7071069 0 -0.7071067
vn 0.9238795 0 0.3826836
vn -0.9238796 0 -0.3826833

usemtl M_White
f 1/1/1 2/2/1 3/3/1
f 4/4/2 5/5/2 6/6/2
f 7/19/1 8/20/1 9/21/1
f 10/22/2 11/23/2 12/24/2
f 13/37/1 14/38/1 15/39/1
f 16/40/2 17/41/2 18/42/2
f 19/55/1 20/56/1 21/57/1
f 22/58/2 23/59/2 24/60/2
f 25/73/1 26/74/1 27/75/1
f 28/76/2 29/77/2 30/78/2
f 2/10/3 5/8/3 4/7/3
f 4/7/3 3/9/3 2/10/3
f 1/14/4 6/12/4 5/11/4
f 5/11/4 2/13/4 1/14/4
f 3/18/5 4/16/5 6/15/5
f 6/15/5 1/17/5 3/18/5
f 8/28/6 11/26/6 10/25/6
f 10/25/6 9/27/6 8/28/6
f 7/32/7 12/30/7 11/29/7
f 11/29/7 8/31/7 7/32/7
f 9/36/8 10/34/8 12/33/8
f 12/33/8 7/35/8 9/36/8
f 14/46/9 17/44/9 16/43/9
f 16/43/9 15/45/9 14/46/9
f 13/50/10 18/48/10 17/47/10
f 17/47/10 14/49/10 13/50/10
f 15/54/11 16/52/11 18/51/11
f 18/51/11 13/53/11 15/54/11
f 20/64/12 23/62/12 22/61/12
f 22/61/12 21/63/12 20/64/12
f 19/68/13 24/66/13 23/65/13
f 23/65/13 20/67/13 19/68/13
f 21/72/14 22/70/14 24/69/14
f 24/69/14 19/71/14 21/72/14
f 26/82/15 29/80/15 28/79/15
f 28/79/15 27/81/15 26/82/15
f 25/86/16 30/84/16 29/83/16
f 29/83/16 26/85/16 25/86/16
f 27/90/17 28/88/17 30/87/17
f 30/87/17 25/89/17 27/90/17

usemtl M_Black
f 33/93/18 34/94/19 32/92/19 31/91/18
f 37/97/20 38/98/21 36/96/21 35/95/20
f 40/101/22 33/102/18 31/100/18 39/99/22
f 38/105/21 42/106/23 41/104/23 36/103/21
f 44/109/24 40/110/22 39/108/22 43/107/24
f 42/113/23 46/114/25 45/112/25 41/111/23
f 48/117/26 44/118/24 43/116/24 47/115/26
f 46/121/25 50/122/27 49/120/27 45/119/25
f 52/125/28 48/126/26 47/124/26 51/123/28
f 50/129/27 54/130/29 53/128/29 49/127/27
f 56/133/30 52/134/28 51/132/28 55/131/30
f 54/137/29 58/138/31 57/136/31 53/135/29
f 60/141/32 56/142/30 55/140/30 59/139/32
f 58/145/31 62/146/33 61/144/33 57/143/31
f 64/149/20 60/150/32 59/148/32 63/147/20
f 62/153/33 66/154/19 65/152/19 61/151/33
f 68/157/21 64/158/20 63/156/20 67/155/21
f 66/161/19 70/162/18 69/160/18 65/159/19
f 72/165/23 68/166/21 67/164/21 71/163/23
f 70/169/18 74/170/22 73/168/22 69/167/18
f 76/173/25 72/174/23 71/172/23 75/171/25
f 74/177/22 78/178/24 77/176/24 73/175/22
f 80/181/27 76/182/25 75/180/25 79/179/27
f 78/185/24 82/186/26 81/184/26 77/183/24
f 84/189/29 80/190/27 79/188/27 83/187/29
f 82/193/26 86/194/28 85/192/28 81/191/26
f 88/197/31 84/198/29 83/196/29 87/195/31
f 86/201/28 90/202/30 89/200/30 85/199/28
f 92/205/33 88/206/31 87/204/31 91/203/33
f 90/209/30 94/210/32 93/208/32 89/207/30
f 34/213/19 92/214/33 91/212/33 32/211/19
f 94/217/32 37/218/20 35/216/20 93/215/32
f 35/221/2 36/222/2 31/220/2 32/219/2
f 38/225/1 37/226/1 34/224/1 33/223/1
f 36/229/2 41/230/2 39/228/2 31/227/2
f 42/233/1 38/234/1 33/232/1 40/231/1
f 41/237/2 45/238/2 43/236/2 39/235/2
f 46/241/1 42/242/1 40/240/1 44/239/1
f 45/245/2 49/246/2 47/244/2 43/243/2
f 50/249/1 46/250/1 44/248/1 48/247/1
f 49/253/2 53/254/2 51/252/2 47/251/2
f 54/257/1 50/258/1 48/256/1 52/255/1
f 53/261/2 57/262/2 55/260/2 51/259/2
f 58/265/1 54/266/1 52/264/1 56/263/1
f 57/269/2 61/270/2 59/268/2 55/267/2
f 62/273/1 58/274/1 56/272/1 60/271/1
f 61/277/2 65/278/2 63/276/2 59/275/2
f 66/281/1 62/282/1 60/280/1 64/279/1
f 65/285/2 69/286/2 67/284/2 63/283/2
f 70/289/1 66/290/1 64/288/1 68/287/1
f 69/293/2 73/294/2 71/292/2 67/291/2
f 74/297/1 70/298/1 68/296/1 72/295/1
f 73/301/2 77/302/2 75/300/2 71/299/2
f 78/305/1 74/306/1 72/304/1 76/303/1
f 77/309/2 81/310/2 79/308/2 75/307/2
f 82/313/1 78/314/1 76/312/1 80/311/1
f 81/317/2 85/318/2 83/316/2 79/315/2
f 86/321/1 82/322/1 80/320/1 84/319/1
f 85/325/2 89/326/2 87/324/2 83/323/2
f 90/329/1 86/330/1 84/328/1 88/327/1
f 89/333/2 93/334/2 91/332/2 87/331/2
f 94/337/1 90/338/1 88/336/1 92/335/1
f 93/341/2 35/342/2 32/340/2 91/339/2
f 37/345/1 94/346/1 92/344/1 34/343/1

